<?xml version="1.0" standalone="no"?><!DOCTYPE svg PUBLIC "-//W3C//DTD SVG 1.1//EN" "http://www.w3.org/Graphics/SVG/1.1/DTD/svg11.dtd"><svg t="1576504813262" class="icon" viewBox="0 0 1024 1024" version="1.1" xmlns="http://www.w3.org/2000/svg" p-id="6634" xmlns:xlink="http://www.w3.org/1999/xlink" width="200" height="200"><defs><style type="text/css"></style></defs><path d="M741.485714 554.057143c61.257143-61.257143 95.085714-142.857143 95.085715-229.485714 0-86.742857-33.714286-168.228571-95.085715-229.485715C680.228571 33.828571 598.628571 0 512 0s-168.228571 33.714286-229.485714 95.085714C221.257143 156.457143 187.428571 237.828571 187.428571 324.571429c0 72.914286 23.885714 142.171429 67.885715 198.742857 8.342857 10.742857 17.371429 20.914286 27.085714 30.742857 9.714286 9.714286 20 18.742857 30.628571 27.085714 45.257143 35.2 98.628571 57.6 155.542858 65.142857V768H338.285714c-5.028571 0-9.142857 4.114286-9.142857 9.142857v68.571429c0 5.028571 4.114286 9.142857 9.142857 9.142857h130.285715v160c0 5.028571 4.114286 9.142857 9.142857 9.142857h68.571428c5.028571 0 9.142857-4.114286 9.142857-9.142857V854.857143h130.285715c5.028571 0 9.142857-4.114286 9.142857-9.142857v-68.571429c0-5.028571-4.114286-9.142857-9.142857-9.142857H555.428571V646.285714c70.285714-9.371429 135.085714-41.257143 186.057143-92.228571zM512 562.285714c-63.542857 0-123.085714-24.685714-168.114286-69.6C298.971429 447.771429 274.285714 388.114286 274.285714 324.571429s24.685714-123.085714 69.6-168.114286C388.8 111.428571 448.457143 86.857143 512 86.857143s123.085714 24.685714 168.114286 69.6C725.028571 201.371429 749.714286 261.028571 749.714286 324.571429s-24.685714 123.085714-69.6 168.114285C635.085714 537.6 575.542857 562.285714 512 562.285714z" p-id="6635"></path></svg>